<?xml version="1.0" encoding="UTF-8" standalone="no"?>
<svg
   xmlns:dc="http://purl.org/dc/elements/1.1/"
   xmlns:cc="http://creativecommons.org/ns#"
   xmlns:rdf="http://www.w3.org/1999/02/22-rdf-syntax-ns#"
   xmlns:svg="http://www.w3.org/2000/svg"
   xmlns="http://www.w3.org/2000/svg"
   version="1.1"
   id="svg4146"
   viewBox="0 0 127.99993 128.00002"
   height="36.124451mm"
   width="36.124424mm">
  <defs
     id="defs4148" />
  <metadata
     id="metadata4151">
    <rdf:RDF>
      <cc:Work
         rdf:about="">
        <dc:format>image/svg+xml</dc:format>
        <dc:type
           rdf:resource="http://purl.org/dc/dcmitype/StillImage" />
        <dc:title></dc:title>
      </cc:Work>
    </rdf:RDF>
  </metadata>
  <path
     style="fill:#000000;fill-opacity:1;fill-rule:evenodd;stroke:none;stroke-width:1px;stroke-linecap:butt;stroke-linejoin:miter;stroke-opacity:1"
     d="m 39.66369,0.44392 c -0.20986,0.0222 -0.4104,0.0963 -0.59282,0.22832 C 37.60402,1.73389 36.51142,3.041 36.50159,5.05964 35.5626,3.43634 35.72171,2.31215 33.13108,2.14993 31.19396,2.02864 30.33245,5.82274 31.43769,7.38485 c 2.44582,3.45698 2.46145,3.52333 5.0092,6.41308 1.51948,-3.24058 7.85346,-6.48992 7.0587,-9.66984 -0.38301,-1.53235 -2.37281,-3.83936 -3.8419,-3.68417 z"
     id="path4970" />
  <path
     style="color:#000000;font-style:normal;font-variant:normal;font-weight:normal;font-stretch:normal;font-size:medium;line-height:normal;font-family:sans-serif;text-indent:0;text-align:start;text-decoration:none;text-decoration-line:none;text-decoration-style:solid;text-decoration-color:#000000;letter-spacing:normal;word-spacing:normal;text-transform:none;direction:ltr;block-progression:tb;writing-mode:lr-tb;baseline-shift:baseline;text-anchor:start;white-space:normal;clip-rule:nonzero;display:inline;overflow:visible;visibility:visible;opacity:1;isolation:auto;mix-blend-mode:normal;color-interpolation:sRGB;color-interpolation-filters:linearRGB;solid-color:#000000;solid-opacity:1;fill:#000000;fill-opacity:1;fill-rule:evenodd;stroke:none;stroke-width:3.86071086;stroke-linecap:butt;stroke-linejoin:miter;stroke-miterlimit:4;stroke-dasharray:none;stroke-dashoffset:0;stroke-opacity:1;color-rendering:auto;image-rendering:auto;shape-rendering:auto;text-rendering:auto;enable-background:accumulate"
     d="m 84.71652,0.41104 c -13.53243,8.6132 -27.29608,16.95312 -40.68695,25.73264 -0.75314,0.5767 -1.50668,1.15305 -2.25982,1.72976 l -0.0608,-9.32097 -11.44879,0.44386 -0.0746,17.74872 C 23.38985,41.94847 16.59383,47.15146 9.79853,52.35487 l 2.06359,5.17649 2.45401,-1.85214 0,3.81569 c -1.28755,1.52704 -3.62978,4.35053 -6.23314,7.47977 -2.86751,3.44672 -5.72602,6.86033 -6.67225,7.90538 -3.1e-4,3e-4 0,0.003 0,0.004 l 0,0 c -0.58069,0.64111 -0.97255,1.18222 -1.20178,1.68775 -0.22923,0.50553 -0.29956,1.03078 -0.059,1.48682 0.24084,0.45605 0.71722,0.71481 1.20778,0.85848 0.49058,0.14368 1.04309,0.20105 1.66708,0.22286 1.80391,0.0629 3.91247,-0.27836 5.83062,-1.31879 0,0.17674 -0.11291,0.36606 -0.0466,0.53336 0.18522,0.46791 0.61529,0.79785 1.08847,0.99548 0.47317,0.19763 1.0176,0.2993 1.63464,0.35983 0.87042,0.0853 1.81873,0.0489 2.78589,-0.12786 l 0,33.60513 78.04784,12.8864 0,0.0512 0.0405,-0.0439 0.0425,0.008 c 0.008,-0.0117 -0.008,-0.0198 0,-0.0311 l 0,-0.0219 c 9.09104,-9.69115 18.0015,-19.5158 27.13609,-29.15745 l 0,-55.27365 c 0.78904,-0.89508 1.57426,-1.79211 2.35289,-2.69419 1.81218,-2.57017 1.45637,-5.8707 0.85174,-8.71271 -1.78568,-3.31723 -5.65126,-5.06264 -8.52341,-7.54006 C 104.41686,15.2426 94.56747,7.8272 84.71834,0.41204 Z m -0.14162,3.22024 0.002,0 34.20691,25.75454 c 1.11806,0.93476 1.55178,1.7706 1.56387,2.6814 0.0111,0.80059 -0.34762,1.77449 -1.26242,2.93346 -0.003,0.004 -0.006,0.008 -0.009,0.0128 -0.12485,0.15803 -0.26001,0.31881 -0.40663,0.48403 l -3.05897,3.46682 -5.71126,6.47335 -2.85663,3.23667 c -0.004,0.005 -0.009,0.01 -0.0122,0.0146 l -5.56763,6.31078 -2.5289,2.86405 c -0.18567,0.17274 -0.37106,0.33443 -0.55637,0.48587 -7.9e-4,6.6e-4 -0.003,0.002 -0.004,0.004 -0.18395,0.15022 -0.36829,0.29018 -0.55231,0.42011 -0.002,7.2e-4 -0.004,0.004 -0.007,0.006 -0.91946,0.64787 -1.84195,1.04631 -2.79191,1.24024 -0.27661,0.0513 -0.55434,0.0924 -0.83553,0.11141 -0.16307,0.0129 -0.32882,0.0223 -0.49569,0.0238 -0.0363,2.5e-4 -0.0728,-0.002 -0.10921,-0.002 -0.004,-3e-5 -0.009,3e-5 -0.0121,0 -0.21114,-0.002 -0.42385,-0.0125 -0.64134,-0.033 -0.0174,-7.3e-4 -0.0352,-0.004 -0.0527,-0.006 -0.20888,-0.0209 -0.42023,-0.0512 -0.63525,-0.0895 -0.038,-0.007 -0.0753,-0.0111 -0.1133,-0.0182 -0.19225,-0.0369 -0.38938,-0.0826 -0.5867,-0.13334 -0.0432,-0.0111 -0.0865,-0.0193 -0.12948,-0.0311 -0.68152,-0.18525 -1.3925,-0.4519 -2.13843,-0.80734 L 88.96723,58.78997 C 88.24946,58.36035 87.59206,57.8515 87.04122,57.27574 L 50.66532,28.1772 c 0.007,-0.004 0.01,-0.008 0.0162,-0.0128 L 48.42576,26.35976 84.57282,3.63181 Z m -45.69825,17.60625 0.0548,8.80952 c -1.9631,1.50318 -3.92613,3.00657 -5.88925,4.50978 l 0.0571,-13.09647 5.77799,-0.22283 z m 6.81188,10.76941 c 13.84994,10.77328 27.6485,21.61354 41.53058,32.34481 0.7515,0.44331 1.55368,0.76876 2.37718,1.0046 l 0,3.19832 c -2.65734,-0.36122 -5.31545,-0.72111 -7.97311,-1.08132 -2.7518,-0.37295 -5.50449,-0.74558 -8.25635,-1.11787 -2.75359,-0.37301 -5.50088,-0.7451 -8.25434,-1.11785 -2.75193,-0.3721 -5.50278,-0.74552 -8.25431,-1.11786 -2.75144,-0.37232 -5.50152,-0.74485 -8.25232,-1.11786 -2.75076,-0.373 -5.5024,-0.74554 -8.25231,-1.11968 -2.74984,-0.37414 -5.49749,-0.74945 -8.24619,-1.12516 -2.7487,-0.37571 -5.49895,-0.75291 -8.24631,-1.13065 -2.23254,-0.30698 -4.46269,-0.61417 -6.6944,-0.92242 l 0,-5.17465 28.52188,-21.52241 z m 71.01957,12.82431 0,26.38289 c 8e-4,-5.7e-4 0.003,-7.2e-4 0.004,-0.002 l 0,0.0146 c -0.002,0.002 -0.004,0.005 -0.007,0.008 -0.0288,8.18799 -0.0173,16.33176 -0.007,24.48328 l -24.25517,26.09794 c -0.024,-18.61798 0.002,-37.35747 0.002,-56.03715 3.50954,0.0625 7.0249,-1.46797 9.0231,-4.2212 5.0309,-5.60735 10.20135,-11.12218 15.23815,-16.72585 z m -93.14443,16.02628 7.1538,0.97721 -12.56159,14.79699 c -3.28124,2.19579 -9.8101,2.47454 -7.24072,-0.75072 L 23.56367,60.85753 Z m 16.50461,2.28868 7.30147,0.98268 -12.82051,14.86094 C 31.201,81.19508 24.54108,81.4746 27.16279,78.23546 L 40.06828,63.14621 Z m 16.65231,2.29051 7.30144,0.98087 -13.57108,15.83813 c -2.93222,3.03157 -10.00617,2.48479 -7.38439,-0.75436 L 56.72059,65.43672 Z m 16.48439,2.28869 7.30142,0.98086 -14.23466,16.89024 c -3.84744,3.70764 -10.0082,2.48478 -7.3864,-0.75437 L 73.20498,67.72541 Z m 16.38927,2.79098 -0.0142,52.4845 -43.0196,-7.10533 -0.27312,-30.25521 c 1.07127,-0.22932 2.18136,-0.68961 3.24912,-1.34801 -0.0577,0.24591 -0.20349,0.50953 -0.2104,0.74524 -0.0173,0.58761 0.14743,1.1524 0.51792,1.60555 0.37047,0.45316 0.93134,0.76885 1.59219,0.92972 0.12235,0.0298 0.24841,0.0498 0.37427,0.0694 l -0.29333,16.70028 29.00544,4.8477 0.0282,-1.5197 0.48151,-26.83771 c 1.01192,-1.21766 1.26158,-1.5164 2.42369,-2.91519 2.94383,-3.54347 5.30617,-6.39034 6.13814,-7.40124 z m -72.31034,8.04785 c -0.01,0.18143 -0.11912,0.37395 -0.0704,0.55161 0.13195,0.48408 0.50403,0.88111 0.95897,1.13613 0.45504,0.25503 0.99585,0.40306 1.61248,0.49683 1.74187,0.26469 3.82297,-0.0677 5.73957,-1.08498 -0.0197,0.19549 -0.13734,0.40083 -0.10522,0.59181 0.0528,0.313 0.19847,0.60092 0.40057,0.853 l 0.26911,31.40777 -8.92395,-1.47403 0,-32.42334 c 0.0393,-0.0199 0.0808,-0.0343 0.11932,-0.0549 z m 16.33266,2.47864 c -0.0342,0.21256 -0.16098,0.43654 -0.14367,0.64295 0.0446,0.52952 0.29605,1.02746 0.70809,1.39367 0.41216,0.36624 0.9594,0.60492 1.59023,0.74707 1.74434,0.39268 3.86429,-0.07 5.83262,-1.21102 -0.047,0.22987 -0.18228,0.47418 -0.17802,0.69593 0.0204,1.06246 0.82232,1.94965 2.01098,2.30147 L 43.70587,115.42614 28.929,112.98583 28.67615,82.25207 c 1.55168,0.0981 3.30194,-0.30835 4.94042,-1.20919 z M 78.12115,84.33801 77.73069,106.107 54.40413,102.20911 54.6651,87.36097 c 0.42426,-0.13077 0.85286,-0.29311 1.28065,-0.48952 0.51568,-0.23677 1.01886,-0.59094 1.52542,-0.91876 -0.0705,0.2696 -0.22636,0.55808 -0.24276,0.81465 -0.0393,0.61596 0.093,1.20738 0.44912,1.6914 0.35611,0.484 0.92861,0.82755 1.60838,0.98451 1.39075,0.32074 3.00148,-0.0809 4.61069,-0.89135 0.52058,-0.26223 1.02977,-0.64107 1.54162,-0.99184 -0.0764,0.28019 -0.238,0.58224 -0.26098,0.84754 -0.0555,0.64063 0.0555,1.25117 0.40461,1.75715 0.34902,0.50598 0.94041,0.86512 1.64076,1.00826 1.42928,0.29169 3.06629,-0.20644 4.70982,-1.10507 1.64352,-0.89863 3.29538,-2.24171 4.63091,-3.85587 0.007,-0.007 0.13161,-0.1584 0.1396,-0.16805 0.0812,-0.098 1.1201,-1.34722 1.41821,-1.70601 z M 40.25442,99.02176 a 1.7949538,1.6205663 0 0 0 -1.79448,1.62015 1.7949538,1.6205663 0 0 0 1.79448,1.62017 1.7949538,1.6205663 0 0 0 1.79452,-1.62017 1.7949538,1.6205663 0 0 0 -1.79452,-1.62015 z"
     id="path5212" />
</svg>
